<svg width="16" height="16" viewBox="0 0 16 16" fill="none" xmlns="http://www.w3.org/2000/svg">
    <path
        d="M3.33333 7.33594L4.33333 4.33594H11.6667L12.6667 7.33594M11.6667 10.6693C11.4015 10.6693 11.1471 10.5639 10.9596 10.3764C10.772 10.1888 10.6667 9.93449 10.6667 9.66927C10.6667 9.40405 10.772 9.1497 10.9596 8.96216C11.1471 8.77463 11.4015 8.66927 11.6667 8.66927C11.9319 8.66927 12.1862 8.77463 12.3738 8.96216C12.5613 9.1497 12.6667 9.40405 12.6667 9.66927C12.6667 9.93449 12.5613 10.1888 12.3738 10.3764C12.1862 10.5639 11.9319 10.6693 11.6667 10.6693ZM4.33333 10.6693C4.06812 10.6693 3.81376 10.5639 3.62623 10.3764C3.43869 10.1888 3.33333 9.93449 3.33333 9.66927C3.33333 9.40405 3.43869 9.1497 3.62623 8.96216C3.81376 8.77463 4.06812 8.66927 4.33333 8.66927C4.59855 8.66927 4.8529 8.77463 5.04044 8.96216C5.22798 9.1497 5.33333 9.40405 5.33333 9.66927C5.33333 9.93449 5.22798 10.1888 5.04044 10.3764C4.8529 10.5639 4.59855 10.6693 4.33333 10.6693ZM12.6133 4.0026C12.48 3.61594 12.1067 3.33594 11.6667 3.33594H4.33333C3.89333 3.33594 3.52 3.61594 3.38667 4.0026L2 8.0026V13.3359C2 13.5127 2.07024 13.6823 2.19526 13.8073C2.32029 13.9324 2.48986 14.0026 2.66667 14.0026H3.33333C3.51014 14.0026 3.67971 13.9324 3.80474 13.8073C3.92976 13.6823 4 13.5127 4 13.3359V12.6693H12V13.3359C12 13.5127 12.0702 13.6823 12.1953 13.8073C12.3203 13.9324 12.4899 14.0026 12.6667 14.0026H13.3333C13.5101 14.0026 13.6797 13.9324 13.8047 13.8073C13.9298 13.6823 14 13.5127 14 13.3359V8.0026L12.6133 4.0026Z"
        fill="white" />
</svg>